<svg width="172" height="95" viewBox="0 0 172 95" fill="none" xmlns="http://www.w3.org/2000/svg">
<path fill-rule="evenodd" clip-rule="evenodd" d="M1.81433 1.30429C3.56677 -0.434763 6.40803 -0.434763 8.16047 1.30429L48.3656 41.2023L88.5707 1.30429C89.4123 0.469167 90.5537 0 91.7438 0H167.012C168.827 0 170.464 1.08497 171.158 2.74898C171.853 4.413 171.469 6.32837 170.186 7.60195L128.842 48.63C128 49.4651 126.859 49.9343 125.669 49.9343H96.2312V90.5467C96.2312 92.3479 95.1379 93.9716 93.4611 94.6609C91.7842 95.3502 89.8541 94.9692 88.5707 93.6956L48.3656 53.7976L8.16047 93.6956C6.40803 95.4346 3.56677 95.4346 1.81433 93.6956C0.0618903 91.9565 0.0618903 89.137 1.81433 87.3979L42.0195 47.4999L1.81433 7.60195C0.0618903 5.8629 0.0618903 3.04334 1.81433 1.30429ZM54.7117 47.4999L87.2564 79.796V45.4812C87.2564 43.0218 89.2655 41.0281 91.7438 41.0281H123.81L156.179 8.90624H93.6025L54.7117 47.4999Z" fill="url(#paint0_linear_484_293)"/>
<path fill-rule="evenodd" clip-rule="evenodd" d="M93.0003 24.2843C93.0003 21.825 95.0094 19.8312 97.4877 19.8312H121.6C124.078 19.8312 126.087 21.825 126.087 24.2843C126.087 26.7437 124.078 28.7375 121.6 28.7375H97.4877C95.0094 28.7375 93.0003 26.7437 93.0003 24.2843Z" fill="url(#paint1_linear_484_293)"/>
<path d="M159.989 84.0156V66.5771H171.296V68.1188H161.695V74.058H170.532V75.5744H161.695V82.4739H171.296V84.0156H159.989Z" fill="#EAE7F0"/>
<path d="M140.51 84.0156V66.5771H142.42L152.327 81.5135V66.5771H154.008V84.0156H152.123L142.216 69.0792V84.0156H140.51Z" fill="#EAE7F0"/>
<path d="M121.199 80.2499V70.3428C121.199 67.8324 122.464 66.5771 124.994 66.5771H130.979C133.509 66.5771 134.773 67.8324 134.773 70.3428V80.2499C134.773 82.7603 133.509 84.0156 130.979 84.0156H124.994C122.464 84.0156 121.199 82.7603 121.199 80.2499ZM122.906 80.5026C122.906 81.8168 123.576 82.4739 124.917 82.4739H131.081C132.405 82.4739 133.067 81.8168 133.067 80.5026V70.0901C133.067 68.7759 132.405 68.1188 131.081 68.1188H124.917C123.576 68.1188 122.906 68.7759 122.906 70.0901V80.5026Z" fill="#EAE7F0"/>
<path d="M103.941 84.0156V82.6508L114.179 68.1188H104.196V66.5771H116.242V67.9419L106.029 82.4739H116.496V84.0156H103.941Z" fill="#EAE7F0"/>
<defs>
<linearGradient id="paint0_linear_484_293" x1="22.9438" y1="75.4062" x2="90.775" y2="-20.1925" gradientUnits="userSpaceOnUse">
<stop stop-color="#E54A64"/>
<stop offset="1" stop-color="#FE9752"/>
</linearGradient>
<linearGradient id="paint1_linear_484_293" x1="22.9438" y1="75.4062" x2="90.775" y2="-20.1925" gradientUnits="userSpaceOnUse">
<stop stop-color="#E54A64"/>
<stop offset="1" stop-color="#FE9752"/>
</linearGradient>
</defs>
</svg>
